<mxfile host="app.diagrams.net" modified="2024-04-26T08:47:43.294Z" agent="Mozilla/5.0 (Macintosh; Intel Mac OS X 10_15_7) AppleWebKit/605.1.15 (KHTML, like Gecko) Version/17.4.1 Safari/605.1.15" etag="8oHwHING6VfoTSvo9giC" version="24.3.0" type="github">
  <diagram name="Page-1" id="wURycizklEfb9GuxCM7u">
    <mxGraphModel dx="794" dy="547" grid="1" gridSize="10" guides="1" tooltips="1" connect="1" arrows="1" fold="1" page="1" pageScale="1" pageWidth="850" pageHeight="1100" math="0" shadow="0">
      <root>
        <mxCell id="0" />
        <mxCell id="1" parent="0" />
        <mxCell id="Wog2cOBHWBnlNM8ZQI1l-1" value="SOC Analyst" style="verticalAlign=top;verticalLabelPosition=bottom;labelPosition=center;align=center;html=1;outlineConnect=0;fillColor=#dae8fc;strokeColor=#6c8ebf;gradientDirection=north;strokeWidth=2;shape=mxgraph.networks.pc;" vertex="1" parent="1">
          <mxGeometry x="610" y="450" width="100" height="70" as="geometry" />
        </mxCell>
        <mxCell id="Wog2cOBHWBnlNM8ZQI1l-9" style="edgeStyle=orthogonalEdgeStyle;rounded=0;orthogonalLoop=1;jettySize=auto;html=1;shape=link;fillColor=#dae8fc;strokeColor=#6c8ebf;" edge="1" parent="1" source="Wog2cOBHWBnlNM8ZQI1l-2" target="Wog2cOBHWBnlNM8ZQI1l-3">
          <mxGeometry relative="1" as="geometry" />
        </mxCell>
        <mxCell id="Wog2cOBHWBnlNM8ZQI1l-10" value="1. Send Events" style="edgeLabel;html=1;align=center;verticalAlign=middle;resizable=0;points=[];" vertex="1" connectable="0" parent="Wog2cOBHWBnlNM8ZQI1l-9">
          <mxGeometry x="0.5223" y="2" relative="1" as="geometry">
            <mxPoint x="1" y="1" as="offset" />
          </mxGeometry>
        </mxCell>
        <mxCell id="Wog2cOBHWBnlNM8ZQI1l-2" value="Windows 10 Client&lt;div&gt;Wazuh Agent&lt;/div&gt;" style="verticalAlign=top;verticalLabelPosition=bottom;labelPosition=center;align=center;html=1;outlineConnect=0;fillColor=#f8cecc;strokeColor=#b85450;gradientDirection=north;strokeWidth=2;shape=mxgraph.networks.pc;" vertex="1" parent="1">
          <mxGeometry x="140" y="450" width="100" height="70" as="geometry" />
        </mxCell>
        <mxCell id="Wog2cOBHWBnlNM8ZQI1l-11" style="edgeStyle=orthogonalEdgeStyle;rounded=0;orthogonalLoop=1;jettySize=auto;html=1;entryX=0.5;entryY=1;entryDx=0;entryDy=0;shape=link;fillColor=#dae8fc;strokeColor=#6c8ebf;" edge="1" parent="1" source="Wog2cOBHWBnlNM8ZQI1l-3" target="Wog2cOBHWBnlNM8ZQI1l-5">
          <mxGeometry relative="1" as="geometry" />
        </mxCell>
        <mxCell id="Wog2cOBHWBnlNM8ZQI1l-3" value="Router" style="image;aspect=fixed;html=1;points=[];align=center;fontSize=12;image=img/lib/azure2/networking/Virtual_Router.svg;" vertex="1" parent="1">
          <mxGeometry x="395" y="330" width="59" height="59" as="geometry" />
        </mxCell>
        <mxCell id="Wog2cOBHWBnlNM8ZQI1l-12" style="rounded=0;orthogonalLoop=1;jettySize=auto;html=1;shape=link;fillColor=#d5e8d4;strokeColor=#82b366;" edge="1" parent="1" source="Wog2cOBHWBnlNM8ZQI1l-4" target="Wog2cOBHWBnlNM8ZQI1l-5">
          <mxGeometry relative="1" as="geometry" />
        </mxCell>
        <mxCell id="Wog2cOBHWBnlNM8ZQI1l-13" value="2. Receive Events" style="edgeLabel;html=1;align=center;verticalAlign=middle;resizable=0;points=[];" vertex="1" connectable="0" parent="Wog2cOBHWBnlNM8ZQI1l-12">
          <mxGeometry x="-0.2139" y="-3" relative="1" as="geometry">
            <mxPoint as="offset" />
          </mxGeometry>
        </mxCell>
        <mxCell id="Wog2cOBHWBnlNM8ZQI1l-14" style="rounded=0;orthogonalLoop=1;jettySize=auto;html=1;shape=link;fillColor=#f8cecc;strokeColor=#b85450;" edge="1" parent="1" source="Wog2cOBHWBnlNM8ZQI1l-4" target="Wog2cOBHWBnlNM8ZQI1l-7">
          <mxGeometry relative="1" as="geometry" />
        </mxCell>
        <mxCell id="Wog2cOBHWBnlNM8ZQI1l-15" value="3. Send Alerts" style="edgeLabel;html=1;align=center;verticalAlign=middle;resizable=0;points=[];" vertex="1" connectable="0" parent="Wog2cOBHWBnlNM8ZQI1l-14">
          <mxGeometry x="-0.1169" y="1" relative="1" as="geometry">
            <mxPoint as="offset" />
          </mxGeometry>
        </mxCell>
        <mxCell id="Wog2cOBHWBnlNM8ZQI1l-4" value="Wazuh Manager" style="image;aspect=fixed;perimeter=ellipsePerimeter;html=1;align=center;shadow=0;dashed=0;spacingTop=3;image=img/lib/active_directory/internet_cloud.svg;" vertex="1" parent="1">
          <mxGeometry x="150" y="123.7" width="60" height="37.8" as="geometry" />
        </mxCell>
        <mxCell id="Wog2cOBHWBnlNM8ZQI1l-26" style="rounded=0;orthogonalLoop=1;jettySize=auto;html=1;exitX=0.25;exitY=0;exitDx=0;exitDy=0;entryX=0.25;entryY=1;entryDx=0;entryDy=0;shape=link;fillColor=#ffe6cc;strokeColor=#d79b00;" edge="1" parent="1">
          <mxGeometry relative="1" as="geometry">
            <mxPoint x="403.6849830303032" y="214.2259796363639" as="sourcePoint" />
            <mxPoint x="399.99696229511085" y="89.44618109285949" as="targetPoint" />
            <Array as="points">
              <mxPoint x="360" y="150" />
            </Array>
          </mxGeometry>
        </mxCell>
        <mxCell id="Wog2cOBHWBnlNM8ZQI1l-5" value="Internet" style="image;aspect=fixed;perimeter=ellipsePerimeter;html=1;align=center;shadow=0;dashed=0;spacingTop=3;image=img/lib/active_directory/internet_cloud.svg;" vertex="1" parent="1">
          <mxGeometry x="395" y="210" width="60" height="37.8" as="geometry" />
        </mxCell>
        <mxCell id="Wog2cOBHWBnlNM8ZQI1l-6" value="TheHive" style="image;aspect=fixed;perimeter=ellipsePerimeter;html=1;align=center;shadow=0;dashed=0;spacingTop=3;image=img/lib/active_directory/internet_cloud.svg;" vertex="1" parent="1">
          <mxGeometry x="620" y="120.55" width="65" height="40.95" as="geometry" />
        </mxCell>
        <mxCell id="Wog2cOBHWBnlNM8ZQI1l-16" style="rounded=0;orthogonalLoop=1;jettySize=auto;html=1;fillColor=#f8cecc;strokeColor=#b85450;shape=link;" edge="1" parent="1" source="Wog2cOBHWBnlNM8ZQI1l-7" target="Wog2cOBHWBnlNM8ZQI1l-6">
          <mxGeometry relative="1" as="geometry" />
        </mxCell>
        <mxCell id="Wog2cOBHWBnlNM8ZQI1l-17" value="5. Send Alerts" style="edgeLabel;html=1;align=center;verticalAlign=middle;resizable=0;points=[];" vertex="1" connectable="0" parent="Wog2cOBHWBnlNM8ZQI1l-16">
          <mxGeometry x="0.0302" relative="1" as="geometry">
            <mxPoint as="offset" />
          </mxGeometry>
        </mxCell>
        <mxCell id="Wog2cOBHWBnlNM8ZQI1l-18" style="rounded=0;orthogonalLoop=1;jettySize=auto;html=1;fillColor=#e1d5e7;strokeColor=#9673a6;shape=link;" edge="1" parent="1" source="Wog2cOBHWBnlNM8ZQI1l-7" target="Wog2cOBHWBnlNM8ZQI1l-5">
          <mxGeometry relative="1" as="geometry" />
        </mxCell>
        <mxCell id="Wog2cOBHWBnlNM8ZQI1l-19" value="4. Enrich IOCS" style="edgeLabel;html=1;align=center;verticalAlign=middle;resizable=0;points=[];" vertex="1" connectable="0" parent="Wog2cOBHWBnlNM8ZQI1l-18">
          <mxGeometry x="-0.0279" y="2" relative="1" as="geometry">
            <mxPoint as="offset" />
          </mxGeometry>
        </mxCell>
        <mxCell id="Wog2cOBHWBnlNM8ZQI1l-20" style="rounded=0;orthogonalLoop=1;jettySize=auto;html=1;shape=link;fillColor=#008a00;strokeColor=#005700;" edge="1" parent="1" source="Wog2cOBHWBnlNM8ZQI1l-7" target="Wog2cOBHWBnlNM8ZQI1l-5">
          <mxGeometry relative="1" as="geometry">
            <Array as="points">
              <mxPoint x="480" y="140" />
            </Array>
          </mxGeometry>
        </mxCell>
        <mxCell id="Wog2cOBHWBnlNM8ZQI1l-21" value="6. Send Email" style="edgeLabel;html=1;align=center;verticalAlign=middle;resizable=0;points=[];" vertex="1" connectable="0" parent="Wog2cOBHWBnlNM8ZQI1l-20">
          <mxGeometry x="0.335" y="3" relative="1" as="geometry">
            <mxPoint as="offset" />
          </mxGeometry>
        </mxCell>
        <mxCell id="Wog2cOBHWBnlNM8ZQI1l-27" style="edgeStyle=orthogonalEdgeStyle;rounded=0;orthogonalLoop=1;jettySize=auto;html=1;entryX=0.5;entryY=0;entryDx=0;entryDy=0;shape=link;fillColor=#ffe6cc;strokeColor=#d79b00;" edge="1" parent="1" source="Wog2cOBHWBnlNM8ZQI1l-7" target="Wog2cOBHWBnlNM8ZQI1l-4">
          <mxGeometry relative="1" as="geometry" />
        </mxCell>
        <mxCell id="Wog2cOBHWBnlNM8ZQI1l-28" value="8. Send Response Action" style="edgeLabel;html=1;align=center;verticalAlign=middle;resizable=0;points=[];" vertex="1" connectable="0" parent="Wog2cOBHWBnlNM8ZQI1l-27">
          <mxGeometry x="0.7673" y="1" relative="1" as="geometry">
            <mxPoint as="offset" />
          </mxGeometry>
        </mxCell>
        <mxCell id="Wog2cOBHWBnlNM8ZQI1l-7" value="Shuffle" style="image;aspect=fixed;perimeter=ellipsePerimeter;html=1;align=center;shadow=0;dashed=0;spacingTop=3;image=img/lib/active_directory/internet_cloud.svg;" vertex="1" parent="1">
          <mxGeometry x="390" y="50" width="62.62" height="39.45" as="geometry" />
        </mxCell>
        <mxCell id="Wog2cOBHWBnlNM8ZQI1l-8" style="edgeStyle=orthogonalEdgeStyle;rounded=0;orthogonalLoop=1;jettySize=auto;html=1;exitX=0.5;exitY=1;exitDx=0;exitDy=0;" edge="1" parent="1" source="Wog2cOBHWBnlNM8ZQI1l-5" target="Wog2cOBHWBnlNM8ZQI1l-5">
          <mxGeometry relative="1" as="geometry" />
        </mxCell>
        <mxCell id="Wog2cOBHWBnlNM8ZQI1l-22" style="rounded=0;orthogonalLoop=1;jettySize=auto;html=1;shape=link;entryX=0.5;entryY=0.07;entryDx=0;entryDy=0;entryPerimeter=0;fillColor=#008a00;strokeColor=#005700;" edge="1" parent="1" source="Wog2cOBHWBnlNM8ZQI1l-5" target="Wog2cOBHWBnlNM8ZQI1l-1">
          <mxGeometry relative="1" as="geometry" />
        </mxCell>
        <mxCell id="Wog2cOBHWBnlNM8ZQI1l-23" value="7. Send &amp;amp; Receive Email" style="edgeLabel;html=1;align=center;verticalAlign=middle;resizable=0;points=[];" vertex="1" connectable="0" parent="Wog2cOBHWBnlNM8ZQI1l-22">
          <mxGeometry x="0.0163" y="1" relative="1" as="geometry">
            <mxPoint as="offset" />
          </mxGeometry>
        </mxCell>
        <mxCell id="Wog2cOBHWBnlNM8ZQI1l-24" style="rounded=0;orthogonalLoop=1;jettySize=auto;html=1;entryX=0.633;entryY=0.952;entryDx=0;entryDy=0;entryPerimeter=0;shape=link;fillColor=#ffe6cc;strokeColor=#d79b00;" edge="1" parent="1" source="Wog2cOBHWBnlNM8ZQI1l-1" target="Wog2cOBHWBnlNM8ZQI1l-5">
          <mxGeometry relative="1" as="geometry">
            <Array as="points">
              <mxPoint x="520" y="390" />
            </Array>
          </mxGeometry>
        </mxCell>
        <mxCell id="Wog2cOBHWBnlNM8ZQI1l-25" value="8. Send Response Action" style="edgeLabel;html=1;align=center;verticalAlign=middle;resizable=0;points=[];" vertex="1" connectable="0" parent="Wog2cOBHWBnlNM8ZQI1l-24">
          <mxGeometry x="-0.3471" y="2" relative="1" as="geometry">
            <mxPoint as="offset" />
          </mxGeometry>
        </mxCell>
        <mxCell id="Wog2cOBHWBnlNM8ZQI1l-29" value="Windows 10&lt;div&gt;Send Events&lt;/div&gt;" style="text;html=1;align=center;verticalAlign=middle;resizable=0;points=[];autosize=1;strokeColor=none;fillColor=none;" vertex="1" parent="1">
          <mxGeometry x="40" y="720" width="90" height="40" as="geometry" />
        </mxCell>
        <mxCell id="Wog2cOBHWBnlNM8ZQI1l-30" value="Wazuh Manager&lt;div&gt;Trigger alerts &amp;amp; Perform response actions&lt;/div&gt;" style="text;html=1;align=center;verticalAlign=middle;resizable=0;points=[];autosize=1;strokeColor=none;fillColor=none;" vertex="1" parent="1">
          <mxGeometry x="170" y="720" width="250" height="40" as="geometry" />
        </mxCell>
        <mxCell id="Wog2cOBHWBnlNM8ZQI1l-31" style="edgeStyle=orthogonalEdgeStyle;rounded=0;orthogonalLoop=1;jettySize=auto;html=1;entryX=0.008;entryY=0.5;entryDx=0;entryDy=0;entryPerimeter=0;" edge="1" parent="1" source="Wog2cOBHWBnlNM8ZQI1l-29" target="Wog2cOBHWBnlNM8ZQI1l-30">
          <mxGeometry relative="1" as="geometry" />
        </mxCell>
        <mxCell id="Wog2cOBHWBnlNM8ZQI1l-32" value="Shuffle&lt;div&gt;Receive Wazuh Alerts &amp;amp; Send Responsive Actions&lt;/div&gt;" style="text;html=1;align=center;verticalAlign=middle;resizable=0;points=[];autosize=1;strokeColor=none;fillColor=none;" vertex="1" parent="1">
          <mxGeometry x="480" y="720" width="290" height="40" as="geometry" />
        </mxCell>
        <mxCell id="Wog2cOBHWBnlNM8ZQI1l-33" style="edgeStyle=orthogonalEdgeStyle;rounded=0;orthogonalLoop=1;jettySize=auto;html=1;entryX=-0.003;entryY=0.5;entryDx=0;entryDy=0;entryPerimeter=0;" edge="1" parent="1" source="Wog2cOBHWBnlNM8ZQI1l-30" target="Wog2cOBHWBnlNM8ZQI1l-32">
          <mxGeometry relative="1" as="geometry" />
        </mxCell>
        <mxCell id="Wog2cOBHWBnlNM8ZQI1l-34" value="OSINT&lt;div&gt;Enrich IOCS&lt;/div&gt;" style="text;html=1;align=center;verticalAlign=middle;resizable=0;points=[];autosize=1;strokeColor=none;fillColor=none;" vertex="1" parent="1">
          <mxGeometry x="575" y="613" width="90" height="40" as="geometry" />
        </mxCell>
        <mxCell id="Wog2cOBHWBnlNM8ZQI1l-35" style="edgeStyle=orthogonalEdgeStyle;rounded=0;orthogonalLoop=1;jettySize=auto;html=1;entryX=0.556;entryY=1.025;entryDx=0;entryDy=0;entryPerimeter=0;" edge="1" parent="1" source="Wog2cOBHWBnlNM8ZQI1l-32" target="Wog2cOBHWBnlNM8ZQI1l-34">
          <mxGeometry relative="1" as="geometry" />
        </mxCell>
        <mxCell id="Wog2cOBHWBnlNM8ZQI1l-36" value="TheHive&lt;div&gt;Create Alert In Case Management&lt;/div&gt;" style="text;html=1;align=center;verticalAlign=middle;resizable=0;points=[];autosize=1;strokeColor=none;fillColor=none;" vertex="1" parent="1">
          <mxGeometry x="535" y="843" width="210" height="40" as="geometry" />
        </mxCell>
        <mxCell id="Wog2cOBHWBnlNM8ZQI1l-37" style="edgeStyle=orthogonalEdgeStyle;rounded=0;orthogonalLoop=1;jettySize=auto;html=1;entryX=0.425;entryY=-0.05;entryDx=0;entryDy=0;entryPerimeter=0;" edge="1" parent="1" source="Wog2cOBHWBnlNM8ZQI1l-32" target="Wog2cOBHWBnlNM8ZQI1l-36">
          <mxGeometry relative="1" as="geometry" />
        </mxCell>
        <mxCell id="Wog2cOBHWBnlNM8ZQI1l-38" value="Email&lt;div&gt;Send Email &amp;amp; Responsive Actions&lt;/div&gt;" style="text;html=1;align=center;verticalAlign=middle;resizable=0;points=[];autosize=1;strokeColor=none;fillColor=none;" vertex="1" parent="1">
          <mxGeometry x="840" y="720" width="200" height="40" as="geometry" />
        </mxCell>
        <mxCell id="Wog2cOBHWBnlNM8ZQI1l-39" style="edgeStyle=orthogonalEdgeStyle;rounded=0;orthogonalLoop=1;jettySize=auto;html=1;entryX=-0.015;entryY=0.5;entryDx=0;entryDy=0;entryPerimeter=0;" edge="1" parent="1" source="Wog2cOBHWBnlNM8ZQI1l-32" target="Wog2cOBHWBnlNM8ZQI1l-38">
          <mxGeometry relative="1" as="geometry" />
        </mxCell>
      </root>
    </mxGraphModel>
  </diagram>
</mxfile>
